# xmcd
#
# Track frame offsets:
#	150
#	17841
#	33638
#	52562
#	83505
#	111107
#	144664
#	169954
#	196060
#	228846
#	253761
#	276108
#	309598
#
# Disc length: 4404 seconds
#
# Revision: 2
# Processed by: cddbd v1.5.2PL0 Copyright (c) Steve Scherf et al.
# Submitted via: EZCDAudioConverter 8.2.2.1
#
DISCID=a411320d
DTITLE=GILMAR SINISTRO - THE BEST OF MIAMI - VOL.02 - 1998 [CD TBOM02) ACR COR
DTITLE=PORATION
DYEAR=1998
DGENRE=FREESTYLE
TTITLE0=BASS CREW - FUNK WESTERN (BY GILMAR SINISTRO)
TTITLE1=MC A.D.E.AND POSSE - ROCK'IN ALL OVER (BY GILMAR SINISTRO)
TTITLE2=MAC'TORNHILL - MAKE LIFE WORT LIVING (BY GILMAR SINISTRO)
TTITLE3=MAGGOTRON - THE BASS THAT ATE MIAMI (BY GILMAR SINISTRO)
TTITLE4=ICE MAN JA - DANCE TRANSFORMER (BY GILMAR SINISTRO)
TTITLE5=THE COVER GIRLS - SHOW ME (BY GILMAR SINISTRO)
TTITLE6=GIGOLO TONY - SMURF ROCK (BY GILMAR SINISTRO)
TTITLE7=FREESTYLE - I'TS AUTOMATIC (BY GILMAR SINISTRO)
TTITLE8=WILL TO POWER - DREAMING (BY GILMAR SINISTRO)
TTITLE9=REINALD-O - MEDLEY FEAT (''MY SWEET LOVE - ANOTHER NIGHT - FOREVER'') 
TTITLE9=(BY DJ GILMAR SINISTRO)
TTITLE10=STEVIE B - I WANNA BE THE ONE (BY GILMAR SINISTRO)
TTITLE11=RAY GUELL - YOU TOOK MY HEART (BY GILMAR SINISTRO)
TTITLE12=LINEAR - SENDING ALL MY LOVE (BY GILMAR SINISTRO)
EXTD=
EXTT0=
EXTT1=
EXTT2=
EXTT3=
EXTT4=
EXTT5=
EXTT6=
EXTT7=
EXTT8=
EXTT9=
EXTT10=
EXTT11=
EXTT12=
PLAYORDER=
